<svg xmlns="http://www.w3.org/2000/svg" version="1.1" xmlns:xlink="http://www.w3.org/1999/xlink" width="1500" height="1500" viewBox="0 0 1500 1500"><rect width="1500" height="1500" x="0" y="0" id="background" stroke="transparent" fill="#e9e9e9"></rect><svg xml:space="preserve" width="1000" height="1000" data-version="2" data-id="lg_aqiYjlGqKhpMHbX6K8" viewBox="0 0 571 152" x="250" y="250"><rect width="100%" height="100%" fill="transparent"></rect><path fill="#000000" d="m105.251 103.661-6.68-23.49h-31.92l-6.61 23.49h-9.43l29.54-100.83h4.78l29.67 100.83zm-22.92-78.61-13.22 46.48h27.07l-13.29-46.48-.28-3.73z" paint-order="stroke"></path><rect width="63.99" height="100.83" x="-32" y="-50.41" fill="none" rx="0" ry="0" transform="translate(83.1 53.75)"></rect><path fill="#000000" d="M184.281 103.661h-56.74V2.831h56.74v8.65h-47.67v37.48h38.6v8.64h-38.6v37.41h47.67z" paint-order="stroke"></path><rect width="56.74" height="100.83" x="-28.37" y="-50.41" fill="none" rx="0" ry="0" transform="translate(156.41 53.75)"></rect><path fill="#000000" d="M210.651 103.661h-9.07V2.831h9.07z" paint-order="stroke"></path><rect width="9.07" height="100.83" x="-4.54" y="-50.41" fill="none" rx="0" ry="0" transform="translate(206.62 53.75)"></rect><path fill="#000000" d="M290.451 78.911q0 5.13-1.93 9.63-1.94 4.5-5.31 7.88-3.38 3.37-7.91 5.3-4.54 1.94-9.67 1.94h-31.92V2.831h31.92q5.13 0 9.67 1.93 4.53 1.94 7.91 5.31 3.37 3.38 5.31 7.91 1.93 4.54 1.93 9.67v.98q0 3.59-.95 6.86-.95 3.27-2.71 6.08-1.75 2.81-4.14 5.1-2.4 2.29-5.35 3.83 2.95 1.55 5.35 3.83 2.39 2.29 4.14 5.14 1.76 2.84 2.71 6.11.95 3.27.95 6.86zm-9.07 0v-7.95q0-3.37-1.27-6.29-1.26-2.92-3.48-5.1-2.21-2.18-5.13-3.44-2.92-1.27-6.29-1.27h-22.43v40.15h22.43q3.37 0 6.29-1.27 2.92-1.26 5.13-3.44 2.22-2.18 3.48-5.1 1.27-2.92 1.27-6.29m0-48.87v-2.39q0-3.37-1.27-6.29-1.26-2.92-3.48-5.14-2.21-2.21-5.13-3.48-2.92-1.26-6.29-1.26h-22.43v34.73h22.43q3.37 0 6.29-1.26 2.92-1.27 5.13-3.48 2.22-2.22 3.48-5.14 1.27-2.91 1.27-6.29" paint-order="stroke"></path><rect width="56.74" height="100.83" x="-28.37" y="-50.41" fill="none" rx="0" ry="0" transform="translate(262.58 53.75)"></rect><path fill="#000000" d="M363.011 80.311q0 5.14-1.93 9.64-1.93 4.5-5.31 7.87-3.37 3.38-7.87 5.31-4.5 1.93-9.64 1.93h-7.17q-5.13 0-9.67-1.93-4.53-1.93-7.91-5.31-3.37-3.37-5.31-7.87-1.93-4.5-1.93-9.64v-54.14q0-5.13 1.93-9.63 1.94-4.5 5.31-7.87 3.38-3.38 7.91-5.31 4.54-1.94 9.67-1.94h7.17q5.14 0 9.64 1.94 4.5 1.93 7.87 5.31 3.38 3.37 5.31 7.87 1.93 4.5 1.93 9.63zm-9.07 0v-54.14q0-3.37-1.26-6.29-1.27-2.92-3.45-5.1-2.18-2.18-5.1-3.44-2.91-1.27-6.29-1.27h-6.33q-3.37 0-6.29 1.27-2.92 1.26-5.13 3.44-2.22 2.18-3.48 5.1-1.27 2.92-1.27 6.29v54.14q0 3.38 1.27 6.3 1.26 2.92 3.48 5.13 2.21 2.22 5.13 3.48 2.92 1.27 6.29 1.27h6.33q3.38 0 6.29-1.27 2.92-1.26 5.1-3.48 2.18-2.21 3.45-5.13 1.26-2.92 1.26-6.3" paint-order="stroke"></path><rect width="56.74" height="103.64" x="-28.37" y="-51.82" fill="none" rx="0" ry="0" transform="translate(335.14 53.74)"></rect><path fill="#000000" d="M439.931 80.311q0 5.14-1.93 9.64-1.93 4.5-5.31 7.87-3.37 3.38-7.87 5.31-4.5 1.93-9.64 1.93h-7.17q-5.13 0-9.67-1.93-4.53-1.93-7.91-5.31-3.37-3.37-5.3-7.87-1.94-4.5-1.94-9.64v-54.14q0-5.13 1.94-9.63 1.93-4.5 5.3-7.87 3.38-3.38 7.91-5.31 4.54-1.94 9.67-1.94h7.17q5.14 0 9.64 1.94 4.5 1.93 7.87 5.31 3.38 3.37 5.31 7.87 1.93 4.5 1.93 9.63zm-9.07 0v-54.14q0-3.37-1.26-6.29-1.27-2.92-3.45-5.1-2.18-2.18-5.09-3.44-2.92-1.27-6.3-1.27h-6.33q-3.37 0-6.29 1.27-2.92 1.26-5.13 3.44-2.22 2.18-3.48 5.1-1.27 2.92-1.27 6.29v54.14q0 3.38 1.27 6.3 1.26 2.92 3.48 5.13 2.21 2.22 5.13 3.48 2.92 1.27 6.29 1.27h6.33q3.38 0 6.3-1.27 2.91-1.26 5.09-3.48 2.18-2.21 3.45-5.13 1.26-2.92 1.26-6.3" paint-order="stroke"></path><rect width="56.74" height="103.64" x="-28.37" y="-51.82" fill="none" rx="0" ry="0" transform="translate(412.06 53.74)"></rect><path fill="#000000" d="M522.061 103.661h-11.25l-37.97-50.42 37.97-50.41h11.25l-38.74 50.41zm-51.4 0h-9.07V2.831h9.07z" paint-order="stroke"></path><rect width="60.47" height="100.83" x="-30.23" y="-50.41" fill="none" rx="0" ry="0" transform="translate(492.33 53.75)"></rect><path stroke="#000000" stroke-width="4.61" d="M5.49 148.272h560.02"></path></svg></svg>